<svg xmlns="http://www.w3.org/2000/svg" width="59.444" height="62.62" viewBox="0 0 59.444 62.62">
  <path id="Path_282" data-name="Path 282" d="M228.557,214.679a12.589,12.589,0,0,0,3.791,7.82s-10.663,10.308-23.459,1.066c0,0-14.928-11.966-1.777-27.606,0,0,9.36-10.782,23.34-1.9v-12.44s-.355-3.554,4.028-4.028c0,0,4.265.948,3.791,4.621l.037,29.264a7.351,7.351,0,0,0,6.953,7.346s8.294.711,8.057-8.412l0-16.232a4.06,4.06,0,0,1,4.023-3.436s3.554.592,3.791,3.673V226.29s-1.54,11.966-13.625,13.862c0,0-12.526,1.422-16.1-9.242,0,0-1.607-3.08,2.447-4.384,0,0,2.987-1.54,4.409,2.251,0,0,5.095,6.042,11.255,2.725,0,0,3.436-1.54,3.791-6.872,0,0-8.649,4.858-16.824-1.422,0,0-4.976-2.37-5.924-10.189,0,0,1.659-12.2-8.767-14.454,0,0-9.36-1.54-12.2,8.531,0,0-2.133,8.767,7.82,12.2C217.42,219.3,224.766,221.2,228.557,214.679Z" transform="translate(-201.695 -177.595)" fill="#6ec9f3"/>
</svg>
