<svg xmlns="http://www.w3.org/2000/svg" width="249.949" height="123.763" viewBox="0 0 249.949 123.763">
  <g id="Group_6894" data-name="Group 6894" transform="translate(-46.026 -160)">
    <path id="Path_4410" data-name="Path 4410" d="M406.056,628.138a5.836,5.836,0,0,1,0-11.671h86.68a5.074,5.074,0,0,0-4.452-2.647h-172.3a8.482,8.482,0,0,0,0,16.964h172.3a5.074,5.074,0,0,0,4.452-2.647Z" transform="translate(-216.711 -347.021)" fill="#ccc"/>
    <path id="Path_4411" data-name="Path 4411" d="M764.042,632.678H681.63a.476.476,0,0,1,0-.953h82.412a.476.476,0,1,1,0,.953Z" transform="translate(-487.902 -360.016)" fill="#ccc"/>
    <path id="Path_4412" data-name="Path 4412" d="M764.042,643.971H681.63a.476.476,0,0,1,0-.953h82.412a.476.476,0,0,1,0,.953Z" transform="translate(-487.902 -368.213)" fill="#ccc"/>
    <path id="Path_4413" data-name="Path 4413" d="M764.042,655.265H681.63a.476.476,0,0,1,0-.953h82.412a.476.476,0,0,1,0,.953Z" transform="translate(-487.902 -376.41)" fill="#ccc"/>
    <path id="Path_4414" data-name="Path 4414" d="M324.4,568.2a5.836,5.836,0,1,1,0-11.671h86.68a5.074,5.074,0,0,0-4.452-2.647h-172.3a8.482,8.482,0,0,0,0,16.964h172.3a5.074,5.074,0,0,0,4.452-2.647Z" transform="translate(-157.441 -303.516)" fill="#6ec9f3"/>
    <path id="Path_4415" data-name="Path 4415" d="M682.384,572.738H599.972a.476.476,0,1,1,0-.953h82.412a.476.476,0,1,1,0,.953Z" transform="translate(-428.635 -316.512)" fill="#ccc"/>
    <path id="Path_4416" data-name="Path 4416" d="M682.384,584.031H599.972a.476.476,0,1,1,0-.953h82.412a.476.476,0,0,1,0,.953Z" transform="translate(-428.635 -324.707)" fill="#ccc"/>
    <path id="Path_4417" data-name="Path 4417" d="M682.384,595.324H599.972a.476.476,0,0,1,0-.953h82.412a.476.476,0,1,1,0,.953Z" transform="translate(-428.635 -332.904)" fill="#ccc"/>
    <path id="Path_4418" data-name="Path 4418" d="M242.74,506.257a5.836,5.836,0,0,1,0-11.671h86.68a5.074,5.074,0,0,0-4.452-2.647h-172.3a8.482,8.482,0,0,0,0,16.965h172.3a5.074,5.074,0,0,0,4.452-2.647Z" transform="translate(-98.174 -258.559)" fill="#ccc"/>
    <path id="Path_4419" data-name="Path 4419" d="M600.726,510.8H518.314a.476.476,0,1,1,0-.953h82.412a.476.476,0,0,1,0,.953Z" transform="translate(-369.365 -271.555)" fill="#ccc"/>
    <path id="Path_4420" data-name="Path 4420" d="M600.726,522.091H518.314a.476.476,0,0,1,0-.953h82.412a.476.476,0,0,1,0,.953Z" transform="translate(-369.365 -279.752)" fill="#ccc"/>
    <path id="Path_4421" data-name="Path 4421" d="M600.726,533.384H518.314a.476.476,0,0,1,0-.953h82.412a.476.476,0,0,1,0,.953Z" transform="translate(-369.365 -287.947)" fill="#ccc"/>
    <path id="Path_4422" data-name="Path 4422" d="M821.676,386.4a1.782,1.782,0,0,1-1.776-1.666l-.264-4.038A1.782,1.782,0,0,1,821.3,378.8l31.638-2.072a3.806,3.806,0,0,1,.5,7.6L821.8,386.4Q821.736,386.4,821.676,386.4Z" transform="translate(-588.412 -174.932)" fill="#6ec9f3"/>
    <path id="Path_4423" data-name="Path 4423" d="M844.527,385.945a1.784,1.784,0,0,1-1.78-1.716l-.225-6.032a1.782,1.782,0,0,1,1.715-1.847l26.016-.972a1.782,1.782,0,0,1,1.848,1.714l.225,6.032a1.782,1.782,0,0,1-1.715,1.847l-26.016.972Z" transform="translate(-605.025 -173.955)" fill="#2f2e41"/>
    <path id="Path_4424" data-name="Path 4424" d="M945.6,517.98h-4.047a1.784,1.784,0,0,1-1.782-1.782V482.469a1.784,1.784,0,0,1,1.782-1.782H945.6a1.784,1.784,0,0,1,1.782,1.782V516.2a1.784,1.784,0,0,1-1.782,1.782Z" transform="translate(-675.611 -250.391)" fill="#2f2e41"/>
    <path id="Path_4425" data-name="Path 4425" d="M884.086,461.019l-3.461-2.1a1.784,1.784,0,0,1-.6-2.448l17.483-28.844a1.784,1.784,0,0,1,2.448-.6l3.461,2.1a1.784,1.784,0,0,1,.6,2.448l-17.483,28.844a1.784,1.784,0,0,1-2.448.6Z" transform="translate(-632.059 -211.258)" fill="#2f2e41"/>
    <circle id="Ellipse_133" data-name="Ellipse 133" cx="13.983" cy="13.983" r="13.983" transform="translate(249.859 167.129)" fill="#6ec9f3"/>
    <path id="Path_4426" data-name="Path 4426" d="M906.057,294.6a3.316,3.316,0,0,1-1.211-.711,2.23,2.23,0,0,1-.652-1.766,1.5,1.5,0,0,1,.667-1.155,1.94,1.94,0,0,1,1.85-.022l-.026-5.459.548,0,.03,6.418-.423-.266a1.661,1.661,0,0,0-1.684-.207.964.964,0,0,0-.417.745,1.685,1.685,0,0,0,.485,1.316,4.533,4.533,0,0,0,2.5.921l-.087.541A9.036,9.036,0,0,1,906.057,294.6Z" transform="translate(-649.783 -108.707)" fill="#2f2e41"/>
    <rect id="Rectangle_17339" data-name="Rectangle 17339" width="0.548" height="2.953" transform="translate(251.178 177.045) rotate(-82.477)" fill="#2f2e41"/>
    <rect id="Rectangle_17340" data-name="Rectangle 17340" width="0.548" height="2.953" transform="translate(260.42 178.264) rotate(-82.477)" fill="#2f2e41"/>
    <path id="Path_4427" data-name="Path 4427" d="M912.61,407.691H889.03a2.333,2.333,0,0,1-2.331-2.331l4.937-37.855a2.328,2.328,0,0,1,2.329-2.313h8.368A12.621,12.621,0,0,1,914.94,377.8v27.561A2.333,2.333,0,0,1,912.61,407.691Z" transform="translate(-637.09 -166.563)" fill="#eedae9"/>
    <path id="Path_4428" data-name="Path 4428" d="M973.832,406.9a1.785,1.785,0,0,1-.265,1.921l-2.646,3.062a1.782,1.782,0,0,1-2.514.183l-23.992-20.728a3.806,3.806,0,0,1,4.976-5.759l23.992,20.727a1.773,1.773,0,0,1,.449.593Z" transform="translate(-678.025 -180.689)" fill="#6ec9f3"/>
    <path id="Path_4429" data-name="Path 4429" d="M962.777,393.069a1.785,1.785,0,0,1-.265,1.921l-4.519,5.231a1.784,1.784,0,0,1-2.514.183l-19.7-17.02a1.782,1.782,0,0,1-.184-2.514l4.519-5.23a1.782,1.782,0,0,1,2.514-.183l19.7,17.02a1.775,1.775,0,0,1,.449.593Z" transform="translate(-672.266 -173.697)" fill="#2f2e41"/>
    <path id="Path_4430" data-name="Path 4430" d="M909.06,237.127c-1.869-1.547-4.368-.084-6.482-.291a5,5,0,0,1-4.094-3.894,6.188,6.188,0,0,1,2.294-5.936,8.911,8.911,0,0,1,6.7-1.816,16.846,16.846,0,0,1,7.466,2.973,33.41,33.41,0,0,1,5.973,4.869,12.854,12.854,0,0,1,3.456,6.1,8.452,8.452,0,0,1-1.048,6.315,6.637,6.637,0,0,1-2.557,2.189c-1.069.551-2.214.951-3.248,1.57-1.564.936-3.065,2.844-2.532,4.79a2.684,2.684,0,0,0,.632,1.137c.361.386.99-.145.627-.532a2.264,2.264,0,0,1-.313-2.435,4.462,4.462,0,0,1,1.942-2.218c1.083-.647,2.284-1.056,3.4-1.647a7.409,7.409,0,0,0,2.674-2.3,9.164,9.164,0,0,0,1.316-6.569A12.96,12.96,0,0,0,922,232.994a32.377,32.377,0,0,0-6.035-5.139,19.114,19.114,0,0,0-7.7-3.391,10.24,10.24,0,0,0-7.172,1.294,7.563,7.563,0,0,0-3.549,5.812,6.1,6.1,0,0,0,2.948,5.413,5.237,5.237,0,0,0,3.142.665,23.89,23.89,0,0,1,3.507-.4,2.451,2.451,0,0,1,1.455.556c.409.338.875-.34.47-.676Z" transform="translate(-644.955 -64.309)" fill="#2f2e41"/>
    <path id="Path_4431" data-name="Path 4431" d="M879.537,527.1q.008-.046.018-.093a1.77,1.77,0,0,1,.776-1.122l3.4-2.194a1.784,1.784,0,0,1,2.464.532l10.491,16.265a1.782,1.782,0,0,1-.532,2.464l-3.4,2.193a1.784,1.784,0,0,1-2.464-.532L879.8,528.353a1.769,1.769,0,0,1-.262-1.249Z" transform="translate(-631.875 -281.4)" fill="#2f2e41"/>
  </g>
</svg>
