<?xml version="1.0" standalone="no"?>
<!DOCTYPE svg PUBLIC "-//W3C//DTD SVG 20010904//EN"
 "http://www.w3.org/TR/2001/REC-SVG-20010904/DTD/svg10.dtd">
<svg version="1.0" xmlns="http://www.w3.org/2000/svg"
 width="250.000000pt" height="124.000000pt" viewBox="0 0 250.000000 124.000000"
 preserveAspectRatio="xMidYMid meet">

<g transform="translate(0.000000,124.000000) scale(0.100000,-0.100000)"
fill="#000000" stroke="none">
<path d="M2096 1219 c-14 -11 -26 -25 -26 -31 0 -6 8 0 18 12 10 12 36 26 58
30 36 7 37 8 8 9 -18 1 -43 -8 -58 -20z"/>
<path d="M2240 1206 c0 -2 8 -10 18 -17 15 -13 16 -12 3 4 -13 16 -21 21 -21
13z"/>
<path d="M2295 1160 c10 -11 20 -20 23 -20 3 0 -3 9 -13 20 -10 11 -20 20 -23
20 -3 0 3 -9 13 -20z"/>
<path d="M2089 1117 c5 -5 28 -7 52 -5 l44 3 -52 5 c-29 3 -48 1 -44 -3z"/>
<path d="M2110 1049 c0 -12 -8 -28 -17 -35 -16 -12 -16 -12 5 -7 16 4 22 13
22 34 0 16 -2 29 -5 29 -3 0 -5 -10 -5 -21z"/>
<path d="M2330 1047 c0 -8 -19 -28 -42 -44 -30 -20 -44 -36 -45 -53 -1 -23 -1
-23 4 -2 2 12 22 34 44 48 39 25 57 49 45 61 -3 4 -6 -1 -6 -10z"/>
<path d="M2201 798 c-17 -18 -31 -37 -31 -43 0 -10 193 -177 212 -184 13 -4
57 49 57 69 0 13 -49 58 -174 163 l-34 27 -30 -32z"/>
<path d="M1925 806 c-16 -11 -17 -19 -9 -47 l10 -34 67 1 c37 0 70 3 73 6 3 4
8 25 11 47 l6 41 -70 0 c-43 0 -76 -5 -88 -14z"/>
<path d="M2032 410 c-6 -11 -12 -25 -12 -31 0 -15 108 -179 117 -179 5 0 15 5
23 10 12 7 16 4 20 -18 4 -20 12 -28 31 -30 43 -5 50 15 47 144 l-3 119 -37 3
-37 3 -3 -83 -3 -83 -34 54 c-31 47 -33 57 -24 82 l11 29 -41 0 c-31 0 -45 -5
-55 -20z"/>
</g>
</svg>
