<svg xmlns="http://www.w3.org/2000/svg" width="281.94" height="262.632" viewBox="0 0 281.94 262.632">
  <g id="Group_6892" data-name="Group 6892" transform="translate(0 0)">
    <path id="Path_4390" data-name="Path 4390" d="M441.736,410.847c-1.371,0-2.755-.022-4.114-.064l.031-.987c1.951.061,3.943.078,5.9.051l.013.988Q442.654,410.846,441.736,410.847Zm7.778-.229-.058-.986c1.954-.115,3.934-.277,5.883-.481l.1.982c-1.964.206-3.959.37-5.929.485Zm-17.831-.154c-1.971-.151-3.962-.349-5.919-.589l.121-.98c1.942.238,3.918.435,5.874.584Zm29.66-1.086-.148-.976c1.942-.295,3.9-.637,5.814-1.017l.193.969c-1.931.384-3.9.728-5.859,1.025Zm-41.464-.361c-1.947-.33-3.912-.709-5.841-1.128l.21-.966c1.914.416,3.864.792,5.8,1.119Zm53.129-1.957-.237-.959c1.906-.471,3.823-.992,5.7-1.548l.281.948c-1.889.56-3.82,1.085-5.74,1.56Zm-64.752-.566c-1.91-.508-3.831-1.067-5.712-1.661l.3-.942c1.866.59,3.773,1.144,5.668,1.648Zm76.155-2.817-.324-.933c1.85-.643,3.71-1.338,5.53-2.067l.367.918c-1.834.734-3.708,1.434-5.572,2.082ZM396.9,402.9c-1.855-.682-3.721-1.417-5.547-2.186l.384-.911c1.812.763,3.663,1.493,5.5,2.17Zm98.541-3.64-.409-.9c1.776-.807,3.562-1.669,5.307-2.561l.45.88c-1.758.9-3.557,1.767-5.347,2.58Zm-109.526-.985c-1.783-.85-3.572-1.753-5.318-2.686l.466-.871c1.733.926,3.508,1.823,5.278,2.666Zm120.1-4.419-.489-.858c1.7-.972,3.4-1.994,5.053-3.037l.528.835c-1.662,1.052-3.375,2.082-5.092,3.06Zm-130.6-1.194c-1.7-1.009-3.394-2.073-5.047-3.161l.544-.825c1.64,1.081,3.325,2.136,5.008,3.137Zm140.643-5.157-.565-.81c1.6-1.121,3.2-2.294,4.758-3.488l.6.783C519.281,385.2,517.668,386.378,516.051,387.507Zm-150.585-1.391c-1.595-1.158-3.188-2.372-4.735-3.607l.617-.772c1.536,1.226,3.116,2.43,4.7,3.579Zm160.01-5.852-.637-.755c1.5-1.262,2.983-2.576,4.423-3.908l.67.726c-1.451,1.342-2.95,2.666-4.457,3.938ZM356.166,378.69c-1.485-1.3-2.961-2.653-4.385-4.021l.684-.713c1.414,1.358,2.878,2.7,4.352,3.991Zm178.04-6.5-.7-.694c1.378-1.4,2.742-2.842,4.051-4.3l.734.661c-1.32,1.465-2.693,2.921-4.082,4.328Zm-186.622-1.735c-1.363-1.433-2.708-2.914-4-4.4l.746-.647c1.282,1.477,2.617,2.946,3.969,4.368Zm194.585-7.1-.763-.627c1.245-1.515,2.471-3.079,3.645-4.648l.791.591C544.66,360.247,543.424,361.823,542.169,363.35ZM339.79,361.474c-1.224-1.546-2.429-3.143-3.581-4.745l.8-.577c1.144,1.59,2.34,3.174,3.554,4.709ZM549.3,353.818l-.817-.555c1.1-1.622,2.181-3.292,3.207-4.964l.842.517c-1.035,1.684-2.122,3.367-3.233,5Zm-216.449-1.99c-1.077-1.65-2.13-3.349-3.132-5.049l.851-.5c.994,1.687,2.04,3.373,3.108,5.01Zm222.681-8.156-.865-.478c.948-1.716,1.87-3.479,2.74-5.24l.886.438c-.876,1.773-1.806,3.549-2.761,5.279Zm-228.71-2.077c-.921-1.742-1.815-3.528-2.656-5.311l.893-.422c.834,1.769,1.721,3.542,2.635,5.27Zm233.986-8.6-.9-.4c.787-1.8,1.543-3.639,2.247-5.473l.922.354c-.709,1.848-1.471,3.7-2.265,5.515Zm-239.05-2.132c-.757-1.818-1.483-3.678-2.156-5.528l.929-.338c.668,1.837,1.387,3.682,2.139,5.486Zm243.322-9-.938-.311c.617-1.858,1.2-3.757,1.729-5.644l.951.267c-.535,1.9-1.122,3.816-1.742,5.688ZM317.7,319.695c-.588-1.883-1.14-3.806-1.642-5.718l.956-.251c.5,1.9,1.046,3.806,1.629,5.674Zm250.6-9.285-.962-.224c.442-1.9.847-3.849,1.2-5.779l.972.178c-.358,1.946-.766,3.9-1.211,5.824Zm-253.619-2.22c-.412-1.93-.785-3.9-1.108-5.844l.975-.162c.321,1.934.691,3.885,1.1,5.8Zm255.772-9.477-.979-.134c.266-1.935.49-3.908.667-5.865l.984.089c-.178,1.972-.4,3.96-.672,5.91Zm-257.719-2.256c-.233-1.956-.424-3.948-.569-5.92l.986-.072c.143,1.958.333,3.935.564,5.876Zm258.794-9.588-.987-.044c.088-1.958.133-3.943.133-5.9h.988c0,1.973-.045,3.974-.133,5.946ZM311.864,284.6c-.034-1.211-.051-2.447-.051-3.673q0-1.14.02-2.277l.988.017q-.02,1.127-.02,2.259c0,1.216.017,2.443.051,3.646Zm258.8-5.051c-.02-1.959-.086-3.944-.195-5.9l.986-.055c.109,1.972.176,3.973.2,5.946Zm-257.609-6.779-.986-.062c.123-1.974.294-3.968.506-5.926l.982.106C313.346,268.828,313.177,270.806,313.055,272.765Zm256.952-5.007c-.2-1.948-.443-3.918-.729-5.858l.977-.144c.289,1.954.536,3.94.735,5.9Zm-255.682-6.727-.976-.151c.3-1.955.654-3.925,1.045-5.856l.968.2c-.388,1.917-.737,3.872-1.037,5.811Zm253.955-4.948c-.377-1.927-.8-3.867-1.264-5.766l.96-.233c.466,1.913.894,3.868,1.274,5.81Zm-251.615-6.62-.958-.24c.48-1.914,1.011-3.843,1.579-5.735l.946.284C317.669,245.65,317.142,247.565,316.666,249.464Zm248.823-4.848c-.551-1.881-1.153-3.774-1.789-5.625l.934-.321c.642,1.866,1.249,3.773,1.8,5.668Zm-245.422-6.471-.932-.328c.657-1.868,1.365-3.744,2.107-5.578l.916.371c-.736,1.819-1.44,3.682-2.091,5.535Zm241.585-4.69c-.721-1.818-1.493-3.643-2.294-5.424l.9-.406c.808,1.795,1.586,3.633,2.312,5.465ZM324.5,227.179l-.9-.412c.825-1.8,1.7-3.6,2.61-5.356l.878.453C326.192,223.607,325.32,225.4,324.5,227.179Zm232.315-4.464c-.884-1.744-1.821-3.492-2.785-5.194l.86-.487c.971,1.716,1.915,3.477,2.806,5.234Zm-226.892-6.041-.856-.493c.986-1.711,2.025-3.425,3.089-5.091l.833.532C331.934,213.275,330.9,214.975,329.924,216.673Zm221.088-4.216c-1.044-1.662-2.137-3.318-3.249-4.921l.811-.563c1.121,1.616,2.223,3.284,3.274,4.959Zm-214.728-5.742-.808-.569c1.139-1.615,2.33-3.225,3.54-4.786l.781.605C338.6,203.514,337.414,205.112,336.284,206.715Zm208.008-3.948c-1.191-1.559-2.43-3.11-3.686-4.608l.757-.635c1.265,1.51,2.514,3.071,3.714,4.643Zm-200.769-5.384-.752-.641c1.278-1.5,2.61-3,3.959-4.441l.722.674C346.113,194.409,344.791,195.892,343.522,197.383Zm193.19-3.66c-1.327-1.445-2.7-2.876-4.091-4.255l.7-.7c1.4,1.39,2.785,2.832,4.122,4.288Zm-185.136-4.972-.691-.706c1.413-1.382,2.875-2.749,4.345-4.061l.658.737c-1.459,1.3-2.91,2.658-4.312,4.03ZM528.341,185.4c-1.455-1.319-2.956-2.62-4.463-3.867l.63-.761c1.518,1.256,3.032,2.567,4.5,3.9Zm-167.961-4.511-.624-.766c1.528-1.244,3.107-2.472,4.694-3.648l.589.794C363.463,178.438,361.9,179.656,360.379,180.891Zm158.863-3.017c-1.569-1.182-3.184-2.341-4.8-3.446l.558-.815c1.628,1.113,3.254,2.281,4.836,3.472Zm-149.387-4.007-.551-.82c1.635-1.1,3.319-2.178,5-3.2l.513.844C373.149,171.706,371.479,172.776,369.855,173.867ZM509.49,171.2c-1.67-1.033-3.384-2.041-5.1-2.994l.48-.863c1.725.961,3.453,1.976,5.135,3.017Zm-129.563-3.463-.474-.867c1.73-.947,3.5-1.865,5.273-2.731l.434.888c-1.755.858-3.516,1.77-5.233,2.71Zm119.238-2.289c-1.758-.876-3.559-1.722-5.353-2.515l.4-.9c1.808.8,3.623,1.652,5.394,2.534ZM390.51,162.565l-.393-.906c1.808-.784,3.658-1.535,5.5-2.234l.351.924c-1.826.693-3.661,1.439-5.456,2.217Zm97.838-1.894c-1.829-.709-3.7-1.386-5.565-2.011l.315-.937c1.878.63,3.764,1.312,5.608,2.027ZM401.53,158.38l-.308-.939c1.878-.616,3.793-1.2,5.694-1.722l.264.952c-1.886.523-3.787,1.1-5.65,1.709Zm75.614-1.469c-1.884-.537-3.806-1.037-5.712-1.487l.227-.961c1.921.453,3.857.957,5.757,1.5ZM412.9,155.224l-.22-.963c1.925-.44,3.886-.84,5.828-1.191l.176.972c-1.928.348-3.873.745-5.784,1.182Zm52.753-1.021c-1.924-.361-3.884-.682-5.825-.955l.137-.978c1.956.275,3.931.6,5.87.962Zm-41.138-1.075-.131-.979c1.956-.261,3.945-.48,5.912-.652l.086.984c-1.952.17-3.925.388-5.867.647Zm29.451-.567c-1.946-.183-3.927-.325-5.888-.419l.048-.987c1.976.1,3.971.238,5.932.423Zm-17.693-.459-.041-.987c1.816-.076,3.666-.114,5.5-.115h.447l0,.988h-.444c-1.821,0-3.658.039-5.46.114Z" transform="translate(-297.41 -151)" fill="#e6e6e6"/>
    <path id="Path_4391" data-name="Path 4391" d="M608.349,668.488V614.462a2.858,2.858,0,0,1,2.855-2.855h6.482a2.858,2.858,0,0,1,2.855,2.855v54.026a2.858,2.858,0,0,1-2.855,2.855H611.2A2.858,2.858,0,0,1,608.349,668.488Z" transform="translate(-463.712 -409.316)" fill="#2f2e41"/>
    <path id="Path_4392" data-name="Path 4392" d="M579.156,668.488V614.462a2.858,2.858,0,0,1,2.855-2.855h6.482a2.858,2.858,0,0,1,2.855,2.855v54.026a2.858,2.858,0,0,1-2.855,2.855h-6.482A2.858,2.858,0,0,1,579.156,668.488Z" transform="translate(-447.341 -409.316)" fill="#2f2e41"/>
    <rect id="Rectangle_17332" data-name="Rectangle 17332" width="31.516" height="34.918" rx="6" transform="translate(128.564 187.309)" fill="#2f2e41"/>
    <path id="Path_4393" data-name="Path 4393" d="M445.49,377.991s-13.245,6.153-24.454,10.234c-6.955-15.7-16.976-15.114-16.976-15.114l-6.075,4.183,1.1,6.274-.3,10.258-1.593,5.378,2.287.413,1.292.234.195-.176a13.273,13.273,0,0,0-.387,3.911l57.463-8.963S456.046,385.361,445.49,377.991Z" transform="translate(-345.29 -275.562)" fill="#e6e6e6"/>
    <rect id="Rectangle_17333" data-name="Rectangle 17333" width="11.752" height="59.296" rx="5.876" transform="matrix(-0.594, -0.804, 0.804, -0.594, 88.649, 190.52)" fill="#6ec9f3"/>
    <path id="Path_4409" data-name="Path 4409" d="M5.876,0a5.876,5.876,0,0,1,5.876,5.876V53.42A5.876,5.876,0,0,1,0,53.42V5.876A5.876,5.876,0,0,1,5.876,0Z" transform="matrix(0.883, -0.469, 0.469, 0.883, 149.209, 150.447)" fill="#6ec9f3"/>
    <path id="Path_4394" data-name="Path 4394" d="M643.283,504.382l-9.352,6.2a2.794,2.794,0,0,1-3.823-.955l-10.328-19.461a2.794,2.794,0,0,1,1.352-3.7l6.365-3.378a2.794,2.794,0,0,1,3.823.955l13.314,16.639A2.794,2.794,0,0,1,643.283,504.382Z" transform="translate(-469.966 -337.029)" fill="#eedae9"/>
    <path id="Path_4395" data-name="Path 4395" d="M527.639,498.423l6.078,8.072a2.635,2.635,0,0,0,3.725.118l16.064-15.078a2.635,2.635,0,0,0,.118-3.725l-4.436-4.726a2.635,2.635,0,0,0-3.725-.118L527.757,494.7A2.635,2.635,0,0,0,527.639,498.423Z" transform="translate(-418.048 -336.772)" fill="#ccc"/>
    <rect id="Rectangle_17335" data-name="Rectangle 17335" width="34.723" height="67.843" rx="6" transform="translate(126.961 145.396)" fill="#eedae9"/>
    <circle id="Ellipse_131" data-name="Ellipse 131" cx="23.505" cy="23.505" r="23.505" transform="translate(120.645 94.303)" fill="#6ec9f3"/>
    <path id="Path_4396" data-name="Path 4396" d="M605.739,418.017a8.084,8.084,0,0,1-4.651-1.108,3.571,3.571,0,0,1-1.405-2.667,2.4,2.4,0,0,1,.817-1.973,3.1,3.1,0,0,1,2.933-.422l-1.185-8.664.871-.119,1.393,10.185-.727-.333a2.658,2.658,0,0,0-2.717.024,1.543,1.543,0,0,0-.506,1.271,2.7,2.7,0,0,0,1.046,1.989,7.264,7.264,0,0,0,4.157.939Z" transform="translate(-458.849 -292.362)" fill="#2f2e41"/>
    <rect id="Rectangle_17336" data-name="Rectangle 17336" width="4.731" height="0.878" transform="translate(134.363 111.569)" fill="#2f2e41"/>
    <rect id="Rectangle_17337" data-name="Rectangle 17337" width="4.731" height="0.878" transform="translate(149.296 111.569)" fill="#2f2e41"/>
    <path id="Path_4397" data-name="Path 4397" d="M561.111,346.622c-3.81-.434-6.76-4.085-7.084-7.788-.386-4.406,2.18-8.591,5.7-11.063a24.337,24.337,0,0,1,12.706-3.9,34.919,34.919,0,0,1,23.869,7.867c3.325,2.762,6.431,6.28,7.608,10.529a10.2,10.2,0,0,1-2.778,10.456,7.017,7.017,0,0,1-5.384,1.658,13.381,13.381,0,0,1-6.267-2.787c-3.578-2.6-6.515-6.226-10.874-7.585-3.2-1-7.344-.119-9.3,2.771a5.263,5.263,0,0,0-.84,2.2.682.682,0,0,0,.46.81.663.663,0,0,0,.81-.46c.513-3.641,4.989-5,8.13-4.168,4.58,1.212,7.655,5.3,11.412,7.9a13.868,13.868,0,0,0,6.646,2.653,8.253,8.253,0,0,0,5.8-1.781,11.276,11.276,0,0,0,3.728-10.82c-.822-4.546-3.881-8.442-7.239-11.458a36.209,36.209,0,0,0-24.745-9.141,27.073,27.073,0,0,0-13.49,3.52,14.731,14.731,0,0,0-7.272,10.994,10.379,10.379,0,0,0,5.594,10.123,8.762,8.762,0,0,0,2.807.792c.841.1.834-1.222,0-1.318Z" transform="translate(-432.489 -247.183)" fill="#2f2e41"/>
    <path id="Path_4398" data-name="Path 4398" d="M399.452,399.058l2.789-.9c.3-.573-.248-.205.013-.762,7.055-15.051.535-24.285.535-24.285l-5.044,3.473c-.012-.029-.023-.058-.035-.087,0,0-.9-1.992-2.291-.5a35.355,35.355,0,0,1-.5,23.9l5.677,2.589,2.191-2.589.05-.249-3.921-.356Z" transform="translate(-344.018 -275.565)" fill="#ccc"/>
    <path id="Path_4399" data-name="Path 4399" d="M478.911,474.584c-22.408-4.98-43.272,5.328-43.272,5.328l-.057-.051-8.309-7.418-32.466-52.982,7.917.05c22.009-13.146,52.982-11.353,52.982-11.353C469.051,423.3,478.911,474.584,478.911,474.584Z" transform="translate(-343.955 -295.172)" fill="#3f3d56"/>
    <path id="Path_4400" data-name="Path 4400" d="M435.582,494.4l-8.309-7.419L394.807,434l7.917.05S434.28,475.727,435.582,494.4Z" transform="translate(-343.955 -309.711)" opacity="0.1"/>
    <ellipse id="Ellipse_132" data-name="Ellipse 132" cx="12.847" cy="8.166" rx="12.847" ry="8.166" transform="translate(78.203 131.502) rotate(-17.052)" fill="#6ec9f3"/>
    <path id="Path_4401" data-name="Path 4401" d="M325.393,358.6c-1.789,6.614-7.917,10.71-7.917,10.71s-3.227-6.627-1.438-13.241,7.917-10.71,7.917-10.71S327.183,351.987,325.393,358.6Z" transform="translate(-299.476 -260)" fill="#ccc"/>
    <path id="Path_4402" data-name="Path 4402" d="M300.28,358.6c1.789,6.614,7.917,10.71,7.917,10.71s3.227-6.627,1.438-13.241-7.917-10.71-7.917-10.71S298.491,351.987,300.28,358.6Z" transform="translate(-290.639 -260)" fill="#ccc"/>
    <path id="Path_4403" data-name="Path 4403" d="M291.288,365.655c4.91,4.779,5.509,12.126,5.509,12.126s-7.36-.4-12.27-5.181-5.509-12.126-5.509-12.126S286.379,360.876,291.288,365.655Z" transform="translate(-279.019 -268.477)" fill="#3f3d56"/>
    <path id="Path_4404" data-name="Path 4404" d="M325.009,365.655c-4.909,4.779-5.509,12.126-5.509,12.126s7.36-.4,12.27-5.181,5.509-12.126,5.509-12.126S329.919,360.876,325.009,365.655Z" transform="translate(-301.721 -268.477)" fill="#3f3d56"/>
    <path id="Path_4405" data-name="Path 4405" d="M886.393,528.6c-1.789,6.614-7.917,10.71-7.917,10.71s-3.227-6.627-1.438-13.241,7.917-10.71,7.917-10.71S888.183,521.987,886.393,528.6Z" transform="translate(-614.094 -355.339)" fill="#ccc"/>
    <path id="Path_4406" data-name="Path 4406" d="M861.28,528.6c1.789,6.614,7.917,10.71,7.917,10.71s3.228-6.627,1.438-13.241-7.917-10.71-7.917-10.71S859.491,521.987,861.28,528.6Z" transform="translate(-605.257 -355.339)" fill="#ccc"/>
    <path id="Path_4407" data-name="Path 4407" d="M852.288,535.655c4.91,4.779,5.509,12.126,5.509,12.126s-7.36-.4-12.27-5.181-5.509-12.126-5.509-12.126S847.379,530.876,852.288,535.655Z" transform="translate(-593.637 -363.815)" fill="#3f3d56"/>
    <path id="Path_4408" data-name="Path 4408" d="M886.009,535.655c-4.909,4.779-5.509,12.126-5.509,12.126s7.36-.4,12.27-5.181,5.509-12.126,5.509-12.126S890.919,530.876,886.009,535.655Z" transform="translate(-616.339 -363.815)" fill="#3f3d56"/>
    <rect id="Rectangle_17338" data-name="Rectangle 17338" width="101.891" height="0.878" transform="translate(93.969 261.753)" fill="#3f3d56"/>
  </g>
</svg>
