<svg id="svg" version="1.1" xmlns="http://www.w3.org/2000/svg" xmlns:xlink="http://www.w3.org/1999/xlink" width="400" height="362.93333333333334" viewBox="0, 0, 400,362.93333333333334"><g id="svgg"><path id="path0" d="M58.667 48.122 L 58.667 96.243 60.867 96.941 C 65.366 98.367,73.973 100.029,74.660 99.604 C 74.810 99.511,74.933 99.095,74.933 98.679 C 74.933 98.264,75.281 96.546,75.707 94.861 C 82.181 69.227,108.837 56.201,131.667 67.516 C 134.846 69.092,134.756 68.870,133.133 71.151 C 119.932 89.704,101.354 99.807,80.357 99.854 L 74.714 99.867 74.527 103.096 C 72.471 138.658,111.038 160.602,138.250 139.354 C 160.209 122.207,159.339 86.078,136.592 70.553 C 134.302 68.990,134.347 69.306,136.008 66.495 C 146.957 47.958,149.508 24.604,142.887 3.533 L 141.777 0.000 100.222 0.000 L 58.667 0.000 58.667 48.122 M184.128 1.000 C 184.201 1.550,184.389 2.960,184.544 4.133 C 194.675 80.722,271.190 125.901,336.867 94.075 L 341.333 91.911 341.333 45.955 L 341.333 0.000 262.664 -0.000 L 183.994 -0.000 184.128 1.000 M174.250 97.667 L 173.467 98.533 174.333 97.750 C 174.810 97.319,175.200 96.929,175.200 96.883 C 175.200 96.677,174.980 96.859,174.250 97.667 M185.401 102.800 C 185.404 103.387,185.458 103.595,185.522 103.264 C 185.586 102.932,185.583 102.452,185.517 102.197 C 185.450 101.942,185.398 102.213,185.401 102.800 M244.933 107.733 C 245.506 108.320,246.035 108.800,246.108 108.800 C 246.182 108.800,245.773 108.320,245.200 107.733 C 244.627 107.147,244.098 106.667,244.025 106.667 C 243.952 106.667,244.360 107.147,244.933 107.733 M173.600 107.283 C 173.600 107.329,173.990 107.719,174.467 108.150 L 175.333 108.933 174.550 108.067 C 173.820 107.259,173.600 107.077,173.600 107.283 M226.729 116.267 C 226.729 116.780,226.783 116.990,226.850 116.733 C 226.918 116.477,226.918 116.057,226.850 115.800 C 226.783 115.543,226.729 115.753,226.729 116.267 M226.729 118.133 C 226.729 118.647,226.783 118.857,226.850 118.600 C 226.918 118.343,226.918 117.923,226.850 117.667 C 226.783 117.410,226.729 117.620,226.729 118.133 M230.400 126.800 C 230.898 127.313,231.365 127.733,231.438 127.733 C 231.511 127.733,231.164 127.313,230.667 126.800 C 230.169 126.287,229.702 125.867,229.629 125.867 C 229.555 125.867,229.902 126.287,230.400 126.800 M73.733 176.980 C 69.174 177.365,62.757 178.386,59.667 179.218 L 58.667 179.487 58.667 239.210 L 58.667 298.933 59.271 298.933 C 59.755 298.933,60.042 299.290,60.719 300.733 C 62.007 303.479,65.439 307.275,67.637 308.387 C 68.203 308.674,68.818 309.020,69.004 309.156 C 69.189 309.293,70.329 309.779,71.537 310.236 L 73.733 311.066 96.533 311.066 C 109.073 311.067,119.663 310.985,120.065 310.885 C 125.900 309.433,131.256 305.084,133.223 300.201 C 133.650 299.141,133.848 298.935,134.436 298.934 C 135.088 298.933,135.154 298.824,135.354 297.400 C 135.620 295.504,135.661 295.249,135.849 294.333 C 135.932 293.930,136.052 293.302,136.115 292.938 C 136.178 292.573,136.292 292.175,136.368 292.052 C 136.443 291.930,136.559 291.538,136.624 291.181 C 137.487 286.471,141.832 275.893,145.011 270.762 C 146.056 269.077,148.449 265.659,149.560 264.267 C 150.320 263.313,151.271 262.117,151.671 261.608 C 152.838 260.128,160.015 253.067,160.353 253.067 C 160.540 253.067,160.756 252.894,162.522 251.333 C 163.103 250.820,163.733 250.400,163.922 250.400 C 165.432 250.400,160.493 235.227,156.136 226.480 C 139.989 194.068,106.882 174.180,73.733 176.980 M174.400 186.750 C 174.400 186.796,174.790 187.186,175.267 187.617 L 176.133 188.400 175.350 187.533 C 174.620 186.725,174.400 186.544,174.400 186.750 M337.267 265.788 C 337.597 265.852,338.137 265.852,338.467 265.788 C 338.797 265.725,338.527 265.673,337.867 265.673 C 337.207 265.673,336.937 265.725,337.267 265.788 M341.183 273.467 C 341.183 277.427,341.220 279.084,341.266 277.149 C 341.311 275.215,341.311 271.975,341.266 269.949 C 341.221 267.924,341.184 269.507,341.183 273.467 M332.267 278.800 C 332.764 279.313,333.231 279.733,333.305 279.733 C 333.378 279.733,333.031 279.313,332.533 278.800 C 332.036 278.287,331.569 277.867,331.495 277.867 C 331.422 277.867,331.769 278.287,332.267 278.800 " stroke="none" fill="#84d3f4" fill-rule="evenodd"></path><path id="path1" d="M142.366 1.267 C 149.976 20.891,147.307 48.221,135.954 66.907 C 135.371 67.868,134.872 68.727,134.847 68.815 C 134.821 68.904,136.013 69.892,137.496 71.011 C 154.277 83.673,159.314 106.992,149.411 126.176 C 139.532 145.315,116.512 153.241,97.634 144.005 C 82.568 136.633,73.141 119.935,74.370 102.800 C 74.590 99.733,74.676 99.860,72.234 99.633 C 69.720 99.400,64.676 98.313,61.600 97.342 C 60.207 96.903,58.977 96.541,58.867 96.538 C 58.757 96.535,58.667 115.146,58.667 137.896 L 58.667 179.258 59.400 179.071 C 101.108 168.456,143.987 192.473,160.323 235.600 C 161.662 239.135,163.801 246.202,164.118 248.139 C 164.413 249.943,164.586 250.039,165.903 249.133 C 168.263 247.510,174.177 244.267,174.778 244.267 C 174.855 244.267,175.552 243.970,176.326 243.608 C 189.006 237.673,210.207 237.479,222.800 243.182 C 223.093 243.315,224.144 243.793,225.134 244.245 C 226.124 244.697,227.009 245.067,227.100 245.067 C 227.377 245.067,232.036 247.751,233.733 248.890 C 239.440 252.716,245.189 257.895,249.028 262.666 C 250.149 264.060,251.128 265.260,251.203 265.333 C 252.778 266.875,257.739 275.678,259.995 280.933 C 261.932 285.447,264.800 295.945,264.800 298.522 C 264.800 299.098,264.921 299.200,265.600 299.200 C 266.041 299.200,266.400 299.342,266.400 299.518 C 266.400 299.866,268.338 303.216,269.033 304.071 C 271.769 307.434,275.195 309.677,279.138 310.685 C 281.910 311.394,323.971 311.482,326.929 310.785 C 331.785 309.640,336.823 305.694,339.080 301.268 C 339.922 299.617,340.254 299.202,340.733 299.201 L 341.333 299.200 341.333 289.893 L 341.333 280.586 340.091 280.959 C 331.988 283.398,326.380 272.890,332.836 267.365 C 334.751 265.725,338.080 265.151,340.733 266.003 L 341.333 266.196 341.333 179.140 L 341.333 92.085 338.600 93.485 C 312.795 106.695,281.624 108.110,254.468 97.304 C 216.903 82.356,188.864 44.701,184.223 2.971 L 183.893 0.000 162.884 0.000 L 141.874 0.000 142.366 1.267 M181.481 96.100 C 185.788 98.105,186.970 104.036,183.800 107.739 C 180.830 111.209,175.503 110.754,173.206 106.834 C 169.629 100.731,175.388 93.262,181.481 96.100 M241.396 105.066 C 247.952 107.557,250.949 116.442,247.594 123.442 C 243.505 131.975,232.718 132.354,228.357 124.119 C 222.863 113.742,231.400 101.268,241.396 105.066 M180.834 177.460 C 183.616 179.293,184.253 183.964,182.122 186.906 C 179.001 191.215,173.321 188.568,173.339 182.814 C 173.354 177.958,177.305 175.136,180.834 177.460 M203.067 252.906 C 198.491 254.353,198.400 254.642,198.400 267.747 C 198.400 273.484,198.310 278.137,198.200 278.086 C 198.090 278.036,196.860 277.410,195.467 276.694 C 187.280 272.491,179.778 271.838,172.020 274.655 C 157.647 279.873,149.231 298.358,155.077 311.867 C 155.267 312.307,155.677 313.262,155.988 313.989 C 162.950 330.290,183.189 335.892,198.404 325.731 C 202.160 323.223,202.080 323.503,199.733 321.072 C 198.208 319.493,196.196 314.820,195.827 312.000 C 195.741 311.340,195.641 310.767,195.605 310.726 C 195.570 310.685,194.966 311.434,194.263 312.391 C 186.690 322.706,169.373 318.934,166.133 306.264 C 162.773 293.129,176.817 281.394,188.933 287.211 C 195.297 290.267,198.756 297.103,198.643 306.400 C 198.442 322.870,215.480 333.778,231.992 327.752 L 234.200 326.946 234.019 328.317 C 232.897 336.771,224.633 341.002,216.551 337.259 C 214.040 336.097,211.261 333.645,210.371 331.808 C 208.125 327.168,199.893 328.689,199.522 333.811 C 198.960 341.586,208.269 349.586,219.467 350.952 C 231.470 352.416,241.563 345.563,245.951 332.969 L 246.800 330.533 246.884 305.067 C 246.976 277.213,246.995 277.591,245.455 275.792 C 242.637 272.500,237.740 272.582,235.395 275.960 L 234.533 277.200 234.377 292.400 C 234.247 305.026,234.150 307.833,233.807 308.977 C 230.331 320.561,213.439 319.806,211.194 307.967 C 211.036 307.136,210.933 296.962,210.933 282.222 C 210.933 260.808,210.883 257.729,210.520 256.858 C 209.340 254.029,205.670 252.083,203.067 252.906 M155.317 257.667 L 154.533 258.533 155.400 257.750 C 155.877 257.319,156.267 256.929,156.267 256.883 C 156.267 256.677,156.047 256.859,155.317 257.667 " stroke="none" fill="#6cccf4" fill-rule="evenodd"></path><path id="path2" d="M108.763 63.737 C 91.701 66.418,77.663 80.738,74.983 98.196 L 74.749 99.725 75.686 99.900 C 77.395 100.221,86.386 99.789,89.733 99.226 C 107.266 96.275,122.070 86.699,133.133 71.151 C 134.756 68.870,134.846 69.092,131.667 67.516 C 124.928 64.176,115.680 62.650,108.763 63.737 M176.400 96.232 C 169.929 99.188,171.805 109.841,178.800 109.858 C 185.763 109.875,187.912 99.659,181.617 96.467 C 179.887 95.589,177.994 95.504,176.400 96.232 M235.666 104.807 C 225.129 107.462,223.689 124.006,233.571 128.871 C 240.705 132.383,248.800 126.168,248.800 117.177 C 248.800 109.518,242.081 103.190,235.666 104.807 M176.667 177.219 C 173.216 179.009,172.371 184.108,175.024 187.129 C 179.517 192.246,185.856 184.683,181.942 178.876 C 180.749 177.107,178.340 176.350,176.667 177.219 M335.095 266.285 C 326.181 269.552,330.937 283.484,340.036 280.758 L 341.067 280.449 341.067 273.451 L 341.067 266.452 340.227 266.159 C 339.074 265.758,336.352 265.824,335.095 266.285 " stroke="none" fill="#94d4f4" fill-rule="evenodd"></path><path id="path3" d="M146.467 22.267 C 146.470 22.853,146.525 23.062,146.589 22.730 C 146.652 22.399,146.650 21.919,146.583 21.664 C 146.516 21.409,146.464 21.680,146.467 22.267 M146.467 32.133 C 146.470 32.720,146.525 32.929,146.589 32.597 C 146.652 32.265,146.650 31.785,146.583 31.530 C 146.516 31.275,146.464 31.547,146.467 32.133 M214.133 69.150 C 214.133 69.196,214.523 69.586,215.000 70.017 L 215.867 70.800 215.083 69.933 C 214.353 69.125,214.133 68.944,214.133 69.150 M220.533 75.550 C 220.533 75.596,220.923 75.986,221.400 76.417 L 222.267 77.200 221.483 76.333 C 220.753 75.525,220.533 75.344,220.533 75.550 M172.067 102.800 C 172.070 103.387,172.125 103.595,172.189 103.264 C 172.252 102.932,172.250 102.452,172.183 102.197 C 172.116 101.942,172.064 102.213,172.067 102.800 M237.270 104.455 C 237.601 104.519,238.081 104.517,238.336 104.450 C 238.591 104.383,238.320 104.331,237.733 104.334 C 237.147 104.337,236.938 104.391,237.270 104.455 M286.737 104.458 C 287.142 104.519,287.742 104.518,288.070 104.454 C 288.398 104.391,288.067 104.341,287.333 104.343 C 286.600 104.345,286.332 104.397,286.737 104.458 M296.604 104.458 C 297.009 104.519,297.609 104.518,297.937 104.454 C 298.265 104.391,297.933 104.341,297.200 104.343 C 296.467 104.345,296.198 104.397,296.604 104.458 M74.206 105.600 C 74.206 106.260,74.258 106.530,74.322 106.200 C 74.385 105.870,74.385 105.330,74.322 105.000 C 74.258 104.670,74.206 104.940,74.206 105.600 M113.267 147.929 C 113.890 147.985,114.910 147.985,115.533 147.929 C 116.157 147.872,115.647 147.827,114.400 147.827 C 113.153 147.827,112.643 147.872,113.267 147.929 M77.810 176.731 C 78.733 176.783,80.173 176.783,81.010 176.730 C 81.848 176.677,81.093 176.635,79.333 176.635 C 77.573 176.636,76.888 176.679,77.810 176.731 M136.522 199.800 C 137.176 200.497,137.746 201.067,137.789 201.067 C 137.989 201.067,137.777 200.827,136.600 199.722 L 135.333 198.533 136.522 199.800 M140.400 203.733 C 140.973 204.320,141.502 204.800,141.575 204.800 C 141.648 204.800,141.240 204.320,140.667 203.733 C 140.094 203.147,139.565 202.667,139.492 202.667 C 139.418 202.667,139.827 203.147,140.400 203.733 M329.929 273.333 C 329.929 273.847,329.983 274.057,330.050 273.800 C 330.118 273.543,330.118 273.123,330.050 272.867 C 329.983 272.610,329.929 272.820,329.929 273.333 " stroke="none" fill="#74ccf4" fill-rule="evenodd"></path><path id="path4" d="M146.480 24.533 C 146.480 25.340,146.530 25.670,146.591 25.267 C 146.652 24.863,146.652 24.203,146.591 23.800 C 146.530 23.397,146.480 23.727,146.480 24.533 M146.480 29.867 C 146.480 30.673,146.530 31.003,146.591 30.600 C 146.652 30.197,146.652 29.537,146.591 29.133 C 146.530 28.730,146.480 29.060,146.480 29.867 M218.000 73.067 C 219.314 74.387,220.449 75.467,220.522 75.467 C 220.596 75.467,219.581 74.387,218.267 73.067 C 216.953 71.747,215.818 70.667,215.744 70.667 C 215.671 70.667,216.686 71.747,218.000 73.067 M141.733 74.933 C 142.456 75.667,143.107 76.267,143.180 76.267 C 143.253 76.267,142.722 75.667,142.000 74.933 C 141.278 74.200,140.627 73.600,140.553 73.600 C 140.480 73.600,141.011 74.200,141.733 74.933 M290.333 104.465 C 291.397 104.515,293.137 104.515,294.200 104.465 C 295.263 104.414,294.393 104.373,292.267 104.373 C 290.140 104.373,289.270 104.414,290.333 104.465 M248.867 117.200 C 248.870 117.787,248.925 117.995,248.989 117.664 C 249.052 117.332,249.050 116.852,248.983 116.597 C 248.916 116.342,248.864 116.613,248.867 117.200 M86.800 136.267 C 87.522 137.000,88.173 137.600,88.247 137.600 C 88.320 137.600,87.789 137.000,87.067 136.267 C 86.344 135.533,85.693 134.933,85.620 134.933 C 85.547 134.933,86.078 135.533,86.800 136.267 M141.721 136.333 L 140.667 137.467 141.800 136.413 C 142.854 135.432,143.056 135.200,142.854 135.200 C 142.811 135.200,142.301 135.710,141.721 136.333 M137.867 201.150 C 137.867 201.196,138.257 201.586,138.733 202.017 L 139.600 202.800 138.817 201.933 C 138.087 201.125,137.867 200.944,137.867 201.150 M337.400 281.250 C 337.657 281.318,338.077 281.318,338.333 281.250 C 338.590 281.183,338.380 281.129,337.867 281.129 C 337.353 281.129,337.143 281.183,337.400 281.250 " stroke="none" fill="#7cccf4" fill-rule="evenodd"></path></g></svg>