<svg xmlns="http://www.w3.org/2000/svg" width="374.938" height="75.214" viewBox="0 0 374.938 75.214">
  <g id="Group_7048" data-name="Group 7048" transform="translate(410.356 -28.106) rotate(90)">
    <g id="Group_7047" data-name="Group 7047" transform="translate(28.106 35.417)">
      <g id="Group_7046" data-name="Group 7046" transform="translate(0 0)">
        <g id="Group_7043" data-name="Group 7043">
          <g id="Group_7042" data-name="Group 7042">
            <path id="Path_4753" data-name="Path 4753" d="M122.408,303.652l-2.78-4.776,2.308-5.027-5.339,1.2-4-3.778-.521,5.524-4.78,2.689,5.014,2.208,1.049,5.443,3.622-4.153Z" transform="translate(-87.339 -226.802)" fill="#f7bf43"/>
            <path id="Path_4754" data-name="Path 4754" d="M207.389,38.3l8.653-2.029-1.024-.854H193.258l-2.564,2.995,8.866.549,4.576,7.715Z" transform="translate(-149.726 -35.417)" fill="#f7bf43"/>
            <path id="Path_4755" data-name="Path 4755" d="M108.531,160.344l-3.739-5.608,2.433-6.3-6.415,1.874-5.162-4.3-.221,6.767L89.8,156.425l6.276,2.309,1.683,6.549,4.107-5.339Z" transform="translate(-74.256 -118.144)" fill="#f7bf43"/>
            <path id="Path_4756" data-name="Path 4756" d="M250.04,230.428l.534-3.7,3.3-1.654-3.3-1.653-.534-3.7-2.572,2.675-3.635-.63,1.718,3.308-1.718,3.308,3.635-.629Z" transform="translate(-189.475 -173.283)" fill="#f7bf43"/>
            <path id="Path_4757" data-name="Path 4757" d="M93.384,70.734a1.163,1.163,0,0,0-2.325.04A1.163,1.163,0,0,0,93.384,70.734Z" transform="translate(-75.197 -60.997)" fill="#f6be42"/>
            <path id="Path_4758" data-name="Path 4758" d="M139.04,83.336c-.182-.851-.876-1.071-1.626-1.152-1.554-.166-1.67,2.359-.274,2.636A1.339,1.339,0,0,0,139.04,83.336Z" transform="translate(-108.937 -70.394)" fill="#f6be42"/>
            <path id="Path_4759" data-name="Path 4759" d="M80.328,120.929c0-2.388-3.644-2.317-3.644.062S80.328,123.309,80.328,120.929Z" transform="translate(-64.444 -98.068)" fill="#f6be42"/>
            <path id="Path_4760" data-name="Path 4760" d="M195.367,140.981a1.588,1.588,0,0,0-3.175.057A1.588,1.588,0,0,0,195.367,140.981Z" transform="translate(-150.847 -113.237)" fill="#f6be42"/>
            <path id="Path_4761" data-name="Path 4761" d="M213.975,194.875a2.687,2.687,0,0,0-.039.268c-.182,1.472,2.012,1.482,1.856.209-.022-.17-.043-.341-.074-.509A.9.9,0,0,0,213.975,194.875Z" transform="translate(-167.104 -154.183)" fill="#f6be42"/>
            <path id="Path_4762" data-name="Path 4762" d="M177.506,229.728c.529-1.41-2.277-1.436-1.727.031a1.335,1.335,0,0,0,.356.563.734.734,0,0,0,1.028-.02A1.347,1.347,0,0,0,177.506,229.728Z" transform="translate(-138.516 -179.971)" fill="#f6be42"/>
            <path id="Path_4763" data-name="Path 4763" d="M265.074,123.406c0-2.613-3.99-2.538-3.99.07S265.074,126.014,265.074,123.406Z" transform="translate(-202.38 -99.797)" fill="#f6be42"/>
            <path id="Path_4764" data-name="Path 4764" d="M167.988,524.364l5.639-8,9.694.17-5.765-7.908,3.153-9.3-9.2,3.114-7.747-5.915.078,9.834L155.9,512l9.248,2.96Z" transform="translate(-123.702 -380.337)" fill="#f7bf43"/>
            <path id="Path_4765" data-name="Path 4765" d="M112.115,614.138l-5.266-4.162.395-6.758-5.53,3.793L95.5,604.542l1.848,6.507-4.238,5.231,6.671.226,3.6,5.7,2.277-6.364Z" transform="translate(-76.729 -460.147)" fill="#f7bf43"/>
            <path id="Path_4766" data-name="Path 4766" d="M221.793,736.435l-6.589-5.509.768-8.97-7.486,4.838-8.176-3.515L202.53,732l-3.8,4.438Z" transform="translate(-155.741 -548.966)" fill="#f7bf43"/>
            <path id="Path_4767" data-name="Path 4767" d="M48.194,394.251l-3.431-6.62,3.431-6.619-7.27,1.267-5.144-5.357-1.063,7.4-6.61,3.307,6.61,3.307,1.063,7.4,5.144-5.357Z" transform="translate(-28.106 -290.871)" fill="#f7bf43"/>
            <path id="Path_4768" data-name="Path 4768" d="M223.859,331.288a8.492,8.492,0,0,1,3.075-2.2c.972-.278,2.46.2,3.835.734-.668-1.374-1.31-2.885-1.076-3.864a9.55,9.55,0,0,1,1.9-3.255c-1.479.22-3.062.374-3.96-.123a8.707,8.707,0,0,1-2.524-2.824,7.66,7.66,0,0,1-1.3,3.7,7.955,7.955,0,0,1-3.453,1.606,5.012,5.012,0,0,1,3.505,6.223Z" transform="translate(-171.913 -248.11)" fill="#f7bf43"/>
            <path id="Path_4769" data-name="Path 4769" d="M211.5,322.878l4.034-3.374.169.047,2.181.635,2.859.831a1.126,1.126,0,0,0,1.332-1.4l-2-5.154c.039-.066.052-.1.121-.2l1.271-1.909,1.662-2.5a.915.915,0,0,0-.1-1.216.935.935,0,0,0-.9-.448l-5.4.334-1.384-1.79-1.83-2.375a1.117,1.117,0,0,0-2.035.305l-1.34,5.249a.157.157,0,0,1-.03.014l-2.134.787-2.793,1.031a1.144,1.144,0,0,0-.23,2.074l4.45,2.879.009.1c.026.77.052,1.535.078,2.3.035,1.005.069,2.008.1,3.013A1.121,1.121,0,0,0,211.5,322.878Zm-3.088-9.725a7.956,7.956,0,0,0,3.453-1.606,7.66,7.66,0,0,0,1.3-3.7,8.707,8.707,0,0,0,2.524,2.824c.9.5,2.481.343,3.96.123a9.549,9.549,0,0,0-1.9,3.255c-.234.978.408,2.489,1.076,3.863-1.375-.53-2.863-1.012-3.835-.734a8.49,8.49,0,0,0-3.075,2.2,5.013,5.013,0,0,0-3.505-6.223Zm8.567-4.319c.122.11.143.16,0,0Zm-6.463.923c.078-.049.1-.046,0,0Z" transform="translate(-159.967 -236.198)" fill="#f6be42"/>
            <path id="Path_4770" data-name="Path 4770" d="M149.774,744.536a.876.876,0,0,0-1.752.031A.876.876,0,0,0,149.774,744.536Z" transform="translate(-117.806 -565.224)" fill="#f6be42"/>
            <path id="Path_4771" data-name="Path 4771" d="M89.352,714.468a.972.972,0,0,0-1.943.036A.972.972,0,0,0,89.352,714.468Z" transform="translate(-72.466 -542.664)" fill="#f6be42"/>
            <path id="Path_4772" data-name="Path 4772" d="M54.746,620.883a1.587,1.587,0,0,0-.989-2.252,1.258,1.258,0,0,0-1.635.518l-.135.229a1.477,1.477,0,0,0,.026,1.473c.017.027.03.054.048.078A1.552,1.552,0,0,0,54.746,620.883Z" transform="translate(-45.832 -471.586)" fill="#f6be42"/>
            <path id="Path_4773" data-name="Path 4773" d="M78.241,538a1.305,1.305,0,0,0-.03-1.763,1.634,1.634,0,0,0-.794-.488c-2.186-.84-2.229,3.635.048,2.758A1.614,1.614,0,0,0,78.241,538Z" transform="translate(-63.757 -409.597)" fill="#f6be42"/>
            <path id="Path_4774" data-name="Path 4774" d="M124.777,537.479a.885.885,0,0,0-1.77.031A.885.885,0,0,0,124.777,537.479Z" transform="translate(-99.094 -410.334)" fill="#f6be42"/>
            <path id="Path_4775" data-name="Path 4775" d="M86.82,566.19c-.035.033-.069.065-.1.1a2.05,2.05,0,1,0-2.872.049c-.038-.031-.082-.06-.121-.088A1.774,1.774,0,0,0,86.82,566.19Z" transform="translate(-69.344 -429.913)" fill="#f6be42"/>
            <path id="Path_4776" data-name="Path 4776" d="M215.809,631.953a1.189,1.189,0,0,0,2.377-.044A1.189,1.189,0,0,0,215.809,631.953Z" transform="translate(-168.513 -480.752)" fill="#f6be42"/>
            <path id="Path_4777" data-name="Path 4777" d="M253.852,650.9c-.035.193-.048.392-.07.589-.156,1.605,2.641,1.594,2.481-.044-.017-.2-.043-.394-.078-.589A1.209,1.209,0,0,0,253.852,650.9Z" transform="translate(-196.913 -495.127)" fill="#f6be42"/>
            <path id="Path_4778" data-name="Path 4778" d="M216.2,699.381a1.852,1.852,0,0,0,.812-2.051,3.265,3.265,0,0,0-.1-.338,1.566,1.566,0,0,0-2.395-.82,1.833,1.833,0,1,0,1.5,3.32Z" transform="translate(-166.589 -529.442)" fill="#f6be42"/>
            <path id="Path_4779" data-name="Path 4779" d="M293.79,638.424a1.527,1.527,0,0,0,3.054-.054A1.527,1.527,0,0,0,293.79,638.424Z" transform="translate(-226.844 -485.34)" fill="#f6be42"/>
            <path id="Path_4780" data-name="Path 4780" d="M315.265,725.5a2.259,2.259,0,0,0,.286,1.361c.885,1.553,3.335.009,2.325-1.391l-.026-.014A1.293,1.293,0,0,0,315.265,725.5Z" transform="translate(-242.902 -550.65)" fill="#f6be42"/>
            <path id="Path_4781" data-name="Path 4781" d="M104.036,522.324a.972.972,0,0,0-1.943.036A.972.972,0,0,0,104.036,522.324Z" transform="translate(-83.45 -398.935)" fill="#f6be42"/>
            <path id="Path_4782" data-name="Path 4782" d="M37.831,498.34a1.024,1.024,0,0,0-2.047.036A1.024,1.024,0,0,0,37.831,498.34Z" transform="translate(-33.849 -380.957)" fill="#f6be42"/>
            <path id="Path_4783" data-name="Path 4783" d="M201.9,410.479c.191-.474-.26.616-.256.6a1.75,1.75,0,0,0,.022.835,1.58,1.58,0,1,0,2.112-1.869A1.28,1.28,0,0,0,201.9,410.479Z" transform="translate(-157.887 -315.476)" fill="#f6be42"/>
            <path id="Path_4784" data-name="Path 4784" d="M273.055,452.017l-.091.255c-.915,2.452,3.96,2.5,3.006-.055-.03-.083-.06-.167-.1-.25A1.464,1.464,0,0,0,273.055,452.017Z" transform="translate(-211.18 -346.225)" fill="#f6be42"/>
            <path id="Path_4785" data-name="Path 4785" d="M156.388,463.451a1.241,1.241,0,0,0-2.481.044A1.241,1.241,0,0,0,156.388,463.451Z" transform="translate(-122.208 -354.703)" fill="#f6be42"/>
            <path id="Path_4786" data-name="Path 4786" d="M94.908,256.742a8.364,8.364,0,0,0-.937.022,1.629,1.629,0,0,0,.056,3.255,8.45,8.45,0,0,0,.937.022A1.651,1.651,0,0,0,94.908,256.742Z" transform="translate(-76.235 -200.968)" fill="#f7bf43"/>
            <path id="Path_4787" data-name="Path 4787" d="M69.874,307.387a1.876,1.876,0,0,0-1.358-2.264,7.712,7.712,0,0,0-1.531,0,1.823,1.823,0,0,0,.06,3.642,5.572,5.572,0,0,0,1.063.052A1.908,1.908,0,0,0,69.874,307.387Z" transform="translate(-55.911 -237.135)" fill="#f7bf43"/>
            <path id="Path_4788" data-name="Path 4788" d="M177.422,259.714a1.241,1.241,0,0,0,2.481-.045A1.241,1.241,0,0,0,177.422,259.714Z" transform="translate(-139.798 -202.27)" fill="#f7bf43"/>
          </g>
        </g>
        <g id="Group_7045" data-name="Group 7045" transform="translate(0 187.469)">
          <g id="Group_7044" data-name="Group 7044">
            <path id="Path_4789" data-name="Path 4789" d="M122.408,1047.652l-2.78-4.777,2.308-5.027-5.339,1.2-4-3.778-.521,5.524-4.78,2.689,5.014,2.208,1.049,5.443,3.622-4.152Z" transform="translate(-87.339 -970.802)" fill="#f7bf43"/>
            <path id="Path_4790" data-name="Path 4790" d="M207.389,782.3l8.653-2.029-1.024-.854H193.258l-2.564,2.995,8.866.549,4.576,7.715Z" transform="translate(-149.726 -779.417)" fill="#f7bf43"/>
            <path id="Path_4791" data-name="Path 4791" d="M108.531,904.344l-3.739-5.608,2.433-6.3-6.415,1.874-5.162-4.3-.221,6.767L89.8,900.425l6.276,2.31,1.683,6.549,4.107-5.339Z" transform="translate(-74.256 -862.144)" fill="#f7bf43"/>
            <path id="Path_4792" data-name="Path 4792" d="M250.04,974.428l.534-3.7,3.3-1.654-3.3-1.653-.534-3.7-2.572,2.674-3.635-.63,1.718,3.308-1.718,3.307,3.635-.629Z" transform="translate(-189.475 -917.283)" fill="#f7bf43"/>
            <path id="Path_4793" data-name="Path 4793" d="M93.384,814.734a1.163,1.163,0,0,0-2.325.04A1.163,1.163,0,0,0,93.384,814.734Z" transform="translate(-75.197 -804.997)" fill="#f6be42"/>
            <path id="Path_4794" data-name="Path 4794" d="M139.04,827.336c-.182-.851-.876-1.071-1.626-1.152-1.554-.166-1.67,2.359-.274,2.636A1.339,1.339,0,0,0,139.04,827.336Z" transform="translate(-108.937 -814.394)" fill="#f6be42"/>
            <path id="Path_4795" data-name="Path 4795" d="M80.328,864.929c0-2.388-3.644-2.317-3.644.062S80.328,867.309,80.328,864.929Z" transform="translate(-64.444 -842.068)" fill="#f6be42"/>
            <path id="Path_4796" data-name="Path 4796" d="M195.367,884.981a1.588,1.588,0,0,0-3.175.057A1.588,1.588,0,0,0,195.367,884.981Z" transform="translate(-150.847 -857.237)" fill="#f6be42"/>
            <path id="Path_4797" data-name="Path 4797" d="M213.975,938.875a2.688,2.688,0,0,0-.039.268c-.182,1.472,2.012,1.482,1.856.209-.022-.17-.043-.341-.074-.509A.9.9,0,0,0,213.975,938.875Z" transform="translate(-167.104 -898.182)" fill="#f6be42"/>
            <path id="Path_4798" data-name="Path 4798" d="M177.506,973.728c.529-1.41-2.277-1.436-1.727.03a1.334,1.334,0,0,0,.356.563.733.733,0,0,0,1.028-.02A1.348,1.348,0,0,0,177.506,973.728Z" transform="translate(-138.516 -923.971)" fill="#f6be42"/>
            <path id="Path_4799" data-name="Path 4799" d="M265.074,867.406c0-2.613-3.99-2.538-3.99.07S265.074,870.014,265.074,867.406Z" transform="translate(-202.38 -843.797)" fill="#f6be42"/>
            <path id="Path_4800" data-name="Path 4800" d="M167.988,1268.365l5.639-8,9.694.169-5.765-7.908,3.153-9.3-9.2,3.114-7.747-5.916.078,9.834L155.9,1256l9.248,2.96Z" transform="translate(-123.702 -1124.337)" fill="#f7bf43"/>
            <path id="Path_4801" data-name="Path 4801" d="M112.115,1358.139l-5.266-4.163.395-6.758-5.53,3.793-6.216-2.469,1.848,6.507-4.238,5.231,6.671.226,3.6,5.7,2.277-6.364Z" transform="translate(-76.729 -1204.147)" fill="#f7bf43"/>
            <path id="Path_4802" data-name="Path 4802" d="M221.793,1480.435l-6.589-5.509.768-8.97-7.486,4.838-8.176-3.515L202.53,1476l-3.8,4.438Z" transform="translate(-155.741 -1292.965)" fill="#f7bf43"/>
            <path id="Path_4803" data-name="Path 4803" d="M48.194,1138.252l-3.431-6.62,3.431-6.619-7.27,1.267-5.144-5.357-1.063,7.4-6.61,3.308,6.61,3.307,1.063,7.4,5.144-5.357Z" transform="translate(-28.106 -1034.872)" fill="#f7bf43"/>
            <path id="Path_4804" data-name="Path 4804" d="M223.859,1075.288a8.5,8.5,0,0,1,3.075-2.2c.972-.278,2.46.2,3.835.734-.668-1.374-1.31-2.885-1.076-3.863a9.549,9.549,0,0,1,1.9-3.255c-1.479.22-3.062.374-3.96-.123a8.7,8.7,0,0,1-2.524-2.824,7.659,7.659,0,0,1-1.3,3.7,7.953,7.953,0,0,1-3.453,1.606,5.012,5.012,0,0,1,3.505,6.223Z" transform="translate(-171.913 -992.11)" fill="#f7bf43"/>
            <path id="Path_4805" data-name="Path 4805" d="M211.5,1066.878l4.034-3.374.169.047,2.181.635,2.859.832a1.126,1.126,0,0,0,1.332-1.4l-2-5.155c.039-.066.052-.1.121-.2l1.271-1.909,1.662-2.5a.915.915,0,0,0-.1-1.216.935.935,0,0,0-.9-.448l-5.4.333-1.384-1.79-1.83-2.375a1.117,1.117,0,0,0-2.035.306l-1.34,5.249a.176.176,0,0,1-.03.014l-2.134.787-2.793,1.031a1.144,1.144,0,0,0-.23,2.074l4.45,2.879c0,.037.005.059.009.1.026.769.052,1.535.078,2.3.035,1.005.069,2.007.1,3.012A1.12,1.12,0,0,0,211.5,1066.878Zm-3.088-9.724a7.954,7.954,0,0,0,3.453-1.606,7.66,7.66,0,0,0,1.3-3.7,8.7,8.7,0,0,0,2.524,2.824c.9.5,2.481.344,3.96.124a9.549,9.549,0,0,0-1.9,3.255c-.234.978.408,2.489,1.076,3.864-1.375-.53-2.863-1.012-3.835-.734a8.493,8.493,0,0,0-3.075,2.2,5.013,5.013,0,0,0-3.505-6.223Zm8.567-4.319c.122.11.143.161,0,0Zm-6.463.923c.078-.049.1-.046,0,0Z" transform="translate(-159.967 -980.198)" fill="#f6be42"/>
            <path id="Path_4806" data-name="Path 4806" d="M149.774,1488.536a.876.876,0,0,0-1.752.031A.876.876,0,0,0,149.774,1488.536Z" transform="translate(-117.806 -1309.224)" fill="#f6be42"/>
            <path id="Path_4807" data-name="Path 4807" d="M89.352,1458.469a.972.972,0,0,0-1.943.035A.972.972,0,0,0,89.352,1458.469Z" transform="translate(-72.466 -1286.664)" fill="#f6be42"/>
            <path id="Path_4808" data-name="Path 4808" d="M54.746,1364.883a1.586,1.586,0,0,0-.989-2.251,1.258,1.258,0,0,0-1.635.518l-.135.229a1.476,1.476,0,0,0,.026,1.473c.017.028.03.054.048.078A1.552,1.552,0,0,0,54.746,1364.883Z" transform="translate(-45.832 -1215.587)" fill="#f6be42"/>
            <path id="Path_4809" data-name="Path 4809" d="M78.241,1282a1.305,1.305,0,0,0-.03-1.764,1.637,1.637,0,0,0-.794-.488c-2.186-.84-2.229,3.635.048,2.758A1.616,1.616,0,0,0,78.241,1282Z" transform="translate(-63.757 -1153.596)" fill="#f6be42"/>
            <path id="Path_4810" data-name="Path 4810" d="M124.777,1281.479a.885.885,0,0,0-1.77.031A.885.885,0,0,0,124.777,1281.479Z" transform="translate(-99.094 -1154.334)" fill="#f6be42"/>
            <path id="Path_4811" data-name="Path 4811" d="M86.82,1310.191c-.035.033-.069.064-.1.1a2.05,2.05,0,1,0-2.872.048c-.038-.031-.082-.06-.121-.088A1.774,1.774,0,0,0,86.82,1310.191Z" transform="translate(-69.344 -1173.913)" fill="#f6be42"/>
            <path id="Path_4812" data-name="Path 4812" d="M215.809,1375.953a1.189,1.189,0,0,0,2.377-.044A1.189,1.189,0,0,0,215.809,1375.953Z" transform="translate(-168.513 -1224.752)" fill="#f6be42"/>
            <path id="Path_4813" data-name="Path 4813" d="M253.852,1394.9c-.035.193-.048.391-.07.589-.156,1.606,2.641,1.594,2.481-.043-.017-.2-.043-.394-.078-.589A1.209,1.209,0,0,0,253.852,1394.9Z" transform="translate(-196.913 -1239.127)" fill="#f6be42"/>
            <path id="Path_4814" data-name="Path 4814" d="M216.2,1443.381a1.852,1.852,0,0,0,.812-2.051,3.235,3.235,0,0,0-.1-.338,1.566,1.566,0,0,0-2.395-.821,1.833,1.833,0,1,0,1.5,3.321Z" transform="translate(-166.589 -1273.442)" fill="#f6be42"/>
            <path id="Path_4815" data-name="Path 4815" d="M293.79,1382.425a1.527,1.527,0,0,0,3.054-.054A1.527,1.527,0,0,0,293.79,1382.425Z" transform="translate(-226.844 -1229.34)" fill="#f6be42"/>
            <path id="Path_4816" data-name="Path 4816" d="M315.265,1469.5a2.26,2.26,0,0,0,.286,1.361c.885,1.553,3.335.009,2.325-1.392l-.026-.014A1.293,1.293,0,0,0,315.265,1469.5Z" transform="translate(-242.902 -1294.65)" fill="#f6be42"/>
            <path id="Path_4817" data-name="Path 4817" d="M104.036,1266.324a.972.972,0,0,0-1.943.035A.972.972,0,0,0,104.036,1266.324Z" transform="translate(-83.45 -1142.936)" fill="#f6be42"/>
            <path id="Path_4818" data-name="Path 4818" d="M37.831,1242.341a1.024,1.024,0,0,0-2.047.035A1.024,1.024,0,0,0,37.831,1242.341Z" transform="translate(-33.849 -1124.958)" fill="#f6be42"/>
            <path id="Path_4819" data-name="Path 4819" d="M201.9,1154.479c.191-.474-.26.616-.256.6a1.75,1.75,0,0,0,.022.835,1.58,1.58,0,1,0,2.112-1.869A1.28,1.28,0,0,0,201.9,1154.479Z" transform="translate(-157.887 -1059.476)" fill="#f6be42"/>
            <path id="Path_4820" data-name="Path 4820" d="M273.055,1196.017l-.091.255c-.915,2.452,3.96,2.5,3.006-.055-.03-.083-.06-.167-.1-.25A1.464,1.464,0,0,0,273.055,1196.017Z" transform="translate(-211.18 -1090.225)" fill="#f6be42"/>
            <path id="Path_4821" data-name="Path 4821" d="M156.388,1207.451a1.241,1.241,0,0,0-2.481.044A1.241,1.241,0,0,0,156.388,1207.451Z" transform="translate(-122.208 -1098.703)" fill="#f6be42"/>
            <path id="Path_4822" data-name="Path 4822" d="M94.908,1000.742a8.328,8.328,0,0,0-.937.022,1.629,1.629,0,0,0,.056,3.255,8.427,8.427,0,0,0,.937.022A1.651,1.651,0,0,0,94.908,1000.742Z" transform="translate(-76.235 -944.969)" fill="#f7bf43"/>
            <path id="Path_4823" data-name="Path 4823" d="M69.874,1051.387a1.877,1.877,0,0,0-1.358-2.265,7.691,7.691,0,0,0-1.531,0,1.823,1.823,0,0,0,.06,3.641,5.542,5.542,0,0,0,1.063.053A1.908,1.908,0,0,0,69.874,1051.387Z" transform="translate(-55.911 -981.135)" fill="#f7bf43"/>
            <path id="Path_4824" data-name="Path 4824" d="M177.422,1003.714a1.241,1.241,0,0,0,2.481-.045A1.241,1.241,0,0,0,177.422,1003.714Z" transform="translate(-139.798 -946.269)" fill="#f7bf43"/>
          </g>
        </g>
      </g>
    </g>
  </g>
</svg>
